<?xml version="1.0" encoding="UTF-8" standalone="no"?>
<svg
   version="1.0"
   width="1024.000000pt"
   height="1024.000000pt"
   viewBox="0 0 1024.000000 1024.000000"
   preserveAspectRatio="xMidYMid meet"
   id="svg5"
   sodipodi:docname="logo.svg"
   inkscape:version="1.4.3 (0d15f75, 2025-12-25)"
   xmlns:inkscape="http://www.inkscape.org/namespaces/inkscape"
   xmlns:sodipodi="http://sodipodi.sourceforge.net/DTD/sodipodi-0.dtd"
   xmlns="http://www.w3.org/2000/svg"
   xmlns:svg="http://www.w3.org/2000/svg">
  <defs
     id="defs5" />
  <sodipodi:namedview
     id="namedview5"
     pagecolor="#ffffff"
     bordercolor="#000000"
     borderopacity="0.25"
     inkscape:showpageshadow="2"
     inkscape:pageopacity="0.0"
     inkscape:pagecheckerboard="0"
     inkscape:deskcolor="#d1d1d1"
     inkscape:document-units="pt"
     inkscape:zoom="0.5"
     inkscape:cx="1020"
     inkscape:cy="749"
     inkscape:window-width="1728"
     inkscape:window-height="998"
     inkscape:window-x="0"
     inkscape:window-y="33"
     inkscape:window-maximized="1"
     inkscape:current-layer="g5" />
  <g
     transform="translate(0.000000,1024.000000) scale(0.100000,-0.100000)"
     fill="currentColor"
     stroke="none"
     id="g5">
    <path
       d="M3890 8413 c-171 -22 -378 -86 -524 -161 -661 -340 -805 -1118 -302 -1626 44 -45 149 -138 231 -207 235 -194 302 -272 360 -416 118 -291 -7 -669 -281 -853 -108 -72 -216 -104 -332 -98 -59 3 -102 11 -134 25 -195 88 -255 340 -139 588 67 144 218 303 368 387 29 16 53 33 53 37 0 11 -51 56 -95 83 -101 62 -238 81 -375 54 -168 -34 -306 -112 -432 -244 -302 -317 -312 -785 -21 -1052 175 -160 465 -237 794 -210 63 5 144 15 180 21 l67 12 36 77 c60 129 132 229 245 340 159 158 314 253 536 329 l110 37 34 84 c81 203 93 419 32 600 -77 228 -200 379 -519 633 -193 154 -261 219 -306 291 -130 206 -137 451 -19 666 55 99 179 217 284 269 205 101 418 88 497 -32 24 -37 27 -50 27 -131 0 -82 -3 -98 -32 -159 -18 -37 -55 -92 -84 -122 -103 -109 -217 -158 -358 -154 -98 4 -99 3 -100 -96 -2 -158 124 -268 304 -268 358 0 713 371 732 763 13 265 -109 430 -377 512 -52 16 -100 21 -245 23 -99 2 -196 1 -215 -2z"
       id="path1" />
    <path
       d="M7581 7864 c-97 -26 -170 -73 -278 -179 l-101 -100 -20 48 c-31 73 -59 82 -262 82 -227 0 -216 5 -223 -102 -13 -177 -72 -447 -152 -687 -122 -371 -286 -615 -425 -633 -60 -8 -80 19 -80 110 0 155 81 417 266 864 93 223 94 230 32 276 -54 40 -100 50 -212 44 -185 -10 -225 -34 -293 -175 0 -2 -21 12 -47 31 -70 54 -134 72 -251 71 -117 -1 -199 -25 -320 -95 -285 -163 -560 -554 -651 -924 -69 -283 -50 -526 51 -658 133 -174 423 -195 649 -48 70 46 177 152 221 219 l29 44 11 -44 c18 -73 80 -144 150 -174 54 -23 182 -23 260 0 84 25 143 57 239 131 47 35 83 59 81 52 -2 -6 -27 -84 -56 -172 -48 -146 -53 -168 -53 -255 -1 -87 1 -99 27 -143 47 -79 135 -124 263 -134 39 -3 96 -3 127 1 l56 7 5 42 c2 23 9 83 15 132 6 50 27 155 46 234 37 150 124 463 131 470 2 2 25 -17 51 -43 172 -170 462 -163 718 19 83 59 218 203 286 305 110 165 201 382 244 580 26 119 31 300 11 401 -21 104 -81 233 -137 293 -93 102 -265 149 -408 110z m-32 -369 c52 -45 64 -96 58 -247 -12 -309 -161 -634 -359 -783 -151 -113 -284 -87 -296 60 -8 94 136 595 202 703 48 79 158 213 200 245 71 55 145 63 195 22z m-1891 -271 c78 -55 70 -198 -30 -501 -97 -296 -215 -491 -342 -563 -63 -37 -130 -40 -169 -10 -114 90 -22 520 176 824 68 104 175 218 230 245 50 25 104 27 135 5z"
       id="path2" />
    <path
       d="M4355 5375 c-438 -70 -799 -360 -917 -735 -20 -65 -23 -95 -23 -230 0 -175 17 -254 79 -378 71 -141 149 -227 371 -411 83 -69 178 -153 212 -189 181 -188 213 -449 87 -708 -102 -208 -285 -335 -489 -337 -62 0 -91 4 -130 22 -176 78 -219 280 -110 516 58 127 190 274 309 346 32 20 55 40 53 49 -4 25 -86 79 -153 100 -81 24 -213 27 -299 5 -354 -90 -605 -485 -531 -835 55 -261 257 -436 573 -496 129 -24 361 -15 501 20 540 136 932 582 932 1061 0 141 -23 236 -89 370 -86 173 -204 302 -473 517 -80 65 -165 139 -187 165 -84 97 -128 231 -118 358 26 301 293 565 572 565 82 0 125 -12 174 -48 121 -90 57 -348 -117 -472 -77 -56 -167 -82 -262 -78 l-75 3 -9 -42 c-12 -59 0 -123 34 -176 103 -163 391 -145 614 39 87 72 147 149 202 259 149 300 94 566 -139 680 -40 19 -99 42 -132 51 -85 23 -343 28 -460 9z"
       id="path3" />
    <path
       d="M7758 5081 c-97 -32 -159 -78 -269 -198 l-56 -61 -16 37 c-30 68 -58 76 -258 76 -126 0 -180 -4 -191 -13 -10 -8 -17 -40 -22 -97 -27 -353 -209 -901 -368 -1109 -98 -127 -207 -175 -243 -106 -44 85 22 341 207 805 l100 250 -19 35 c-30 58 -78 75 -208 75 -102 0 -114 -2 -170 -30 -52 -26 -64 -38 -90 -86 l-30 -57 -35 29 c-86 72 -250 91 -383 45 -151 -54 -325 -195 -461 -376 -203 -270 -316 -579 -316 -864 0 -220 60 -335 210 -405 49 -23 67 -26 160 -25 115 1 188 22 285 82 62 38 177 152 217 215 l31 49 13 -37 c20 -60 61 -112 110 -141 38 -23 63 -29 130 -32 135 -7 265 44 395 157 35 30 50 38 46 25 -3 -10 -9 -32 -13 -49 -4 -16 -31 -97 -61 -178 -105 -290 -125 -435 -74 -540 28 -57 91 -107 166 -132 63 -21 179 -30 225 -18 l35 9 7 85 c17 194 42 311 155 720 l76 277 51 -42 c75 -61 146 -88 243 -94 355 -20 715 303 886 794 60 172 80 281 80 434 0 118 -3 145 -25 212 -65 198 -177 287 -368 294 -74 3 -108 0 -152 -15z m2 -349 c52 -52 63 -155 35 -318 -43 -245 -163 -486 -309 -621 -144 -133 -277 -136 -305 -5 -8 41 -5 64 24 177 18 71 58 207 89 300 59 181 97 249 208 378 99 115 198 149 258 89z m-1787 -312 c56 -44 59 -140 11 -325 -96 -371 -255 -634 -410 -681 -57 -17 -87 -10 -118 27 -36 42 -42 106 -23 223 32 186 112 385 222 551 125 187 243 263 318 205z"
       id="path4" />
  </g>
</svg>
